<svg width="21" height="21" viewBox="0 0 21 21" fill="none" xmlns="http://www.w3.org/2000/svg">
<path d="M20.1875 10.5C20.1875 5.14844 15.8516 0.8125 10.5 0.8125C5.14844 0.8125 0.8125 5.14844 0.8125 10.5C0.8125 14.6406 3.35156 18.1172 6.94531 19.5234C6.86719 18.7812 6.78906 17.6094 6.98438 16.75C7.17969 16.0078 8.11719 11.9453 8.11719 11.9453C8.11719 11.9453 7.84375 11.3594 7.84375 10.5C7.84375 9.17188 8.625 8.15625 9.60156 8.15625C10.4219 8.15625 10.8125 8.78125 10.8125 9.52344C10.8125 10.3438 10.2656 11.5938 9.99219 12.7656C9.79688 13.7031 10.5 14.4844 11.4375 14.4844C13.1562 14.4844 14.4844 12.6875 14.4844 10.0703C14.4844 7.72656 12.8047 6.125 10.4609 6.125C7.6875 6.125 6.08594 8.19531 6.08594 10.3047C6.08594 11.1641 6.39844 12.0625 6.78906 12.5312C6.86719 12.6094 6.86719 12.7266 6.86719 12.8047C6.78906 13.1172 6.59375 13.7812 6.59375 13.8984C6.55469 14.0938 6.4375 14.1328 6.24219 14.0547C5.03125 13.4688 4.28906 11.7109 4.28906 10.2656C4.28906 7.21875 6.51562 4.40625 10.6953 4.40625C14.0547 4.40625 16.6719 6.82812 16.6719 10.0312C16.6719 13.3516 14.5625 16.0469 11.6328 16.0469C10.6562 16.0469 9.71875 15.5391 9.40625 14.9141C9.40625 14.9141 8.9375 16.7891 8.82031 17.2188C8.58594 18.0781 8 19.1328 7.60938 19.7578C8.50781 20.0703 9.48438 20.1875 10.5 20.1875C15.8516 20.1875 20.1875 15.8516 20.1875 10.5Z" fill="#52525B"/>
</svg>
