<svg width="160" height="29" viewBox="0 0 160 29" fill="none" xmlns="http://www.w3.org/2000/svg">
<g clip-path="url(#clip0_25:8)">
<path d="M16.3284 11.5017V2.00681H12.6898V0.176712H21.9573V2.00681H18.2677V11.5017H16.3284Z" fill="#111827"/>
<path d="M27.2531 11.5017V0.176712H35.3978L34.8094 2.00681H29.1895L29.2075 4.57374H34.242V6.39784H29.2075L29.1895 9.68363H34.8094L35.3978 11.5017H27.2531Z" fill="#111827"/>
<path d="M39.7778 0.176712H41.9003L45.5899 7.56899L49.2855 0.176712H51.411L45.5899 11.7833L39.7778 0.176712Z" fill="#111827"/>
<path d="M55.9412 11.5017V0.176712H64.0829L63.4975 2.00681H57.8775L57.8955 4.57374H62.9301V6.39784H57.8955L57.8775 9.68363H63.7256L64.314 11.5017H55.9412Z" fill="#111827"/>
<path d="M109.306 11.4956V2.0007H105.671V0.173599H114.938V2.0007H111.249V11.4956H109.306Z" fill="#111827"/>
<path d="M124.467 11.6815C123.705 11.701 122.947 11.5626 122.241 11.2749C121.535 10.9872 120.897 10.5566 120.366 10.0101C119.319 8.87589 118.738 7.39025 118.738 5.84822C118.738 4.30619 119.319 2.82056 120.366 1.68633C121.455 0.608806 122.926 0.00418091 124.459 0.00418091C125.993 0.00418091 127.464 0.608806 128.553 1.68633C129.609 2.81599 130.196 4.30335 130.196 5.84822C130.196 7.3931 129.609 8.88046 128.553 10.0101C128.025 10.5557 127.389 10.986 126.686 11.2737C125.982 11.5614 125.227 11.7002 124.467 11.6815ZM124.467 1.84807C123.966 1.83625 123.468 1.93112 123.007 2.12635C122.546 2.32159 122.132 2.6127 121.792 2.98027C121.085 3.76411 120.693 4.7815 120.693 5.83624C120.693 6.89099 121.085 7.90838 121.792 8.69221C122.133 9.04356 122.54 9.32443 122.99 9.5188C123.44 9.71317 123.923 9.81722 124.414 9.82501C124.904 9.8328 125.39 9.74417 125.846 9.56419C126.302 9.38421 126.718 9.11641 127.07 8.77608L127.151 8.69221C127.858 7.90838 128.25 6.89099 128.25 5.83624C128.25 4.7815 127.858 3.76411 127.151 2.98027C126.809 2.61262 126.394 2.32155 125.931 2.12636C125.468 1.93117 124.969 1.83631 124.467 1.84807Z" fill="#111827"/>
<path d="M151.858 11.4956V0.173599H160L159.412 2.0007H153.792L153.813 4.57062H158.844V6.39174H153.813L153.792 9.67752H159.412L160 11.4956H151.858Z" fill="#111827"/>
<path d="M144.794 11.5017L137.893 3.85488V11.5017H135.986V0.176712H137.082L143.834 7.64387V0.176712H145.74V11.5017H144.794Z" fill="#111827"/>
<path d="M79.1234 11.5047L72.2216 3.85785V11.5047H70.3182V0.182678H71.411L78.1657 7.64983V0.182678H80.0691V11.5047H79.1234Z" fill="#111827"/>
<path d="M92.4645 10.5284C93.0074 10.9025 93.6106 11.1811 94.2478 11.3521C95.0005 11.572 95.781 11.683 96.5654 11.6815C97.6367 11.71 98.6889 11.3951 99.5675 10.783C99.9858 10.5037 100.326 10.1231 100.557 9.67672C100.787 9.23037 100.9 8.73292 100.885 8.23102C100.889 7.81943 100.807 7.41158 100.645 7.03292C100.503 6.69476 100.294 6.38901 100.03 6.13434C99.7566 5.87604 99.4483 5.65725 99.1142 5.48437C98.7979 5.31686 98.4698 5.1727 98.1325 5.05306C97.8593 4.9602 97.505 4.84639 97.0727 4.71459L95.8239 4.37014L95.2985 4.16946C95.1606 4.13061 95.0298 4.06994 94.9112 3.98974C94.563 3.72616 94.3829 3.47756 94.3829 3.2589V3.14209C94.3822 2.96268 94.4274 2.78607 94.514 2.62887C94.6007 2.47167 94.726 2.33906 94.8782 2.24351C95.3732 1.94386 95.9487 1.80371 96.5264 1.84215C97.6173 1.8564 98.6816 2.18057 99.5945 2.77667L100.222 3.16306V1.06638L100.03 0.949566C98.973 0.306908 97.7548 -0.0224173 96.5174 7.24214e-05C95.2775 7.24214e-05 94.2868 0.299597 93.5693 0.847728C92.9623 1.32005 92.5681 2.01359 92.4735 2.77581C92.379 3.53803 92.5917 4.30652 93.0649 4.91228C93.1198 4.9846 93.179 5.05361 93.2421 5.11895C93.5077 5.36606 93.8119 5.56839 94.1427 5.718C94.4617 5.87391 94.7918 6.00606 95.1304 6.11338C95.3736 6.19125 95.7548 6.30507 96.2622 6.44585L96.8866 6.63155L97.0487 6.68247L97.7092 6.90113C97.9063 6.96134 98.0934 7.05015 98.2646 7.16471C98.4776 7.29204 98.6624 7.4612 98.808 7.66192C98.9008 7.78898 98.9512 7.94198 98.9521 8.09923V8.24599C98.9579 8.47097 98.9031 8.69338 98.7932 8.88994C98.6834 9.0865 98.5225 9.24996 98.3276 9.36322C97.7791 9.69899 97.1422 9.8628 96.4993 9.83348C95.8048 9.83335 95.1157 9.71065 94.4639 9.47105C93.908 9.27005 93.3888 8.97967 92.9268 8.61141L92.4645 8.22802V10.5284Z" fill="#111827"/>
<path d="M0 10.5276C0.548886 10.9027 1.15811 11.1813 1.80126 11.3513C2.55304 11.571 3.33252 11.6819 4.11588 11.6807C5.19294 11.7108 6.25134 11.3959 7.13599 10.7822C7.7136 10.3717 8.13446 9.77784 8.3297 9.09768C8.52494 8.41752 8.483 7.69139 8.21075 7.03811C8.07438 6.70073 7.87002 6.39488 7.61033 6.13953C7.34242 5.88149 7.03919 5.66265 6.7097 5.48956C6.39347 5.32205 6.06536 5.17789 5.72801 5.05825C5.45482 4.96539 5.10057 4.85157 4.66527 4.71978L3.41639 4.37233L2.89403 4.17165C2.75545 4.13466 2.62439 4.07385 2.50675 3.99194C2.15551 3.72536 1.97838 3.47975 1.97838 3.2611V3.14428C1.97776 2.96488 2.0229 2.78826 2.10956 2.63107C2.19621 2.47387 2.32154 2.34125 2.47373 2.24571C2.9693 1.9475 3.54434 1.80746 4.12188 1.84434C5.19694 1.86477 6.24455 2.18654 7.145 2.77287L7.77244 3.15926V1.06258L7.58031 0.945769C6.52441 0.303943 5.30705 -0.0243779 4.07085 -0.00072946C2.83098 -0.00072946 1.84029 0.298795 1.12579 0.858907C0.82437 1.09313 0.572146 1.38429 0.38352 1.71577C0.194894 2.04725 0.0735599 2.41256 0.0264468 2.79083C-0.0206663 3.1691 0.00736426 3.55292 0.108938 3.92038C0.210512 4.28785 0.383639 4.63174 0.618433 4.93245C0.670331 5.00174 0.726478 5.06776 0.78655 5.13013C1.0522 5.37724 1.35639 5.57957 1.68718 5.72918C2.00746 5.88456 2.33855 6.01669 2.67787 6.12455C2.91804 6.20243 3.29931 6.31625 3.80666 6.45703L4.4341 6.64273L4.59622 6.69365L5.25368 6.9123C5.45076 6.97252 5.63789 7.06133 5.80907 7.17589C6.02206 7.30322 6.20692 7.47238 6.35245 7.6731C6.4479 7.799 6.49955 7.95254 6.49955 8.1104V8.25717C6.49991 8.48196 6.44032 8.7028 6.32689 8.89703C6.21346 9.09126 6.05028 9.25188 5.8541 9.36242C5.30424 9.69738 4.66634 9.86014 4.02282 9.82968C3.32828 9.83204 2.63892 9.71031 1.98739 9.47025C1.4324 9.26924 0.914171 8.97885 0.453317 8.61061L0 8.22722V10.5276Z" fill="#111827"/>
<path d="M70.1862 28.8082H66.6167V28.4548H67.097C67.6494 28.4548 67.9256 28.2541 67.9256 27.8558V21.7634C67.9309 21.6533 67.9057 21.5439 67.8528 21.4472C67.7998 21.3505 67.7211 21.2703 67.6254 21.2153C67.2666 21.0751 66.8809 21.0168 66.4966 21.0446V20.6821C66.914 20.7033 67.3314 20.6387 67.7229 20.4924C68.1143 20.3461 68.4714 20.1211 68.7722 19.8315L69.0724 19.7806V27.8558C69.0602 27.9422 69.068 28.0303 69.095 28.1133C69.1221 28.1964 69.1677 28.2722 69.2285 28.335C69.4281 28.4345 69.652 28.475 69.8739 28.4518H70.1742L70.1862 28.8082Z" fill="#111827"/>
<path d="M72.747 28.9881L72.6179 28.6017C73.5304 28.1808 74.3793 27.6344 75.1396 26.9782C75.8698 26.3291 76.4329 25.5145 76.7818 24.603C76.2894 25.0703 75.5389 25.3019 74.5302 25.2979C74.2072 25.2968 73.8887 25.2226 73.5985 25.0809C73.3084 24.9393 73.0542 24.7339 72.855 24.4802C72.6135 24.2171 72.4267 23.9088 72.3055 23.5731C72.1843 23.2374 72.1311 22.8811 72.1489 22.5247C72.1668 22.1683 72.2554 21.8191 72.4096 21.4971C72.5638 21.1752 72.7805 20.887 73.0472 20.6493L73.0832 20.6163C73.6736 20.0698 74.4514 19.7696 75.2567 19.7777C75.6332 19.7648 76.008 19.8331 76.3556 19.9778C76.7032 20.1225 77.0155 20.3403 77.2711 20.6163C77.7935 21.1879 78.0723 21.9399 78.0487 22.713C78.0582 23.5031 77.9134 24.2875 77.6224 25.0223C77.3554 25.6944 76.9551 26.3056 76.4455 26.8195C75.4138 27.8394 74.1421 28.585 72.747 28.9881ZM74.3171 24.4023C74.6409 24.5966 75.0141 24.6933 75.3918 24.6809C75.5936 24.6837 75.7932 24.6397 75.9751 24.5524C76.1569 24.465 76.3159 24.3368 76.4395 24.1777C76.7255 23.8241 76.8746 23.3798 76.8598 22.9257C76.878 22.2666 76.6464 21.6249 76.2114 21.1285C76.0224 20.9006 75.7853 20.7171 75.517 20.5913C75.2487 20.4655 74.9558 20.4004 74.6593 20.4007C74.4442 20.3934 74.2302 20.4355 74.034 20.5238C73.8377 20.6121 73.6645 20.7442 73.5275 20.9099C73.2439 21.2612 73.0949 21.7019 73.1072 22.1529C73.1305 22.7123 73.3104 23.2539 73.6266 23.7164C73.7971 23.9979 74.0342 24.2334 74.3171 24.4023Z" fill="#111827"/>
<path d="M84.7073 21.2214C84.7073 22.0661 84.0178 22.8578 82.6388 23.5966L82.6658 23.6476C82.9011 23.5371 83.1565 23.4759 83.4164 23.4678C83.7008 23.4582 83.9843 23.5064 84.2495 23.6094C84.5148 23.7123 84.7563 23.868 84.9594 24.0669C85.1683 24.287 85.3294 24.5477 85.4327 24.8327C85.536 25.1176 85.5793 25.4208 85.5599 25.7233C85.5736 26.1773 85.4812 26.6284 85.29 27.0406C85.0987 27.4529 84.8139 27.8151 84.4581 28.0985C83.7366 28.6968 82.8233 29.0158 81.8853 28.9971C81.4631 29.01 81.0418 28.9513 80.6394 28.8234C80.2658 28.6852 79.9246 28.4722 79.6367 28.1973L79.8439 26.8315H80.1801C80.2641 27.2591 80.4634 27.6557 80.7565 27.9787C81.0207 28.2453 81.489 28.3801 82.1675 28.3801C82.4578 28.3957 82.7483 28.3529 83.0217 28.2541C83.2951 28.1553 83.5457 28.0025 83.7586 27.805C83.9595 27.6028 84.1165 27.3615 84.2198 27.0961C84.3231 26.8307 84.3705 26.5469 84.359 26.2624C84.3896 25.71 84.2142 25.1659 83.8667 24.7348C83.6855 24.5425 83.4641 24.3923 83.2181 24.295C82.9722 24.1976 82.7078 24.1556 82.4437 24.1717C82.0862 24.169 81.7299 24.2133 81.3839 24.3035V23.9411L81.9543 23.6416C82.3948 23.4575 82.7796 23.1623 83.0711 22.7849C83.2761 22.4631 83.3806 22.0878 83.3713 21.7066C83.3713 21.0237 82.94 20.6803 82.0774 20.6763C81.5461 20.6849 81.036 20.8861 80.6424 21.2424C80.4173 21.4311 80.2432 21.5868 80.1231 21.7066L79.8769 21.4491C80.1871 20.9228 80.6354 20.491 81.1734 20.2002C81.7114 19.9094 82.3188 19.7705 82.93 19.7987C83.4019 19.7715 83.8677 19.9151 84.2419 20.203C84.3897 20.3283 84.5079 20.4845 84.5883 20.6605C84.6688 20.8365 84.7094 21.028 84.7073 21.2214Z" fill="#111827"/>
<path d="M89.3486 28.8085H87.8475C88.3369 27.7152 88.7121 26.9035 88.9793 26.3703C89.2465 25.8372 89.6818 25.0794 90.2852 24.0849C90.9465 23.0186 91.6609 21.9859 92.4257 20.9909H89.0634C88.6187 20.9728 88.1809 21.1047 87.8205 21.3653C87.6849 21.4479 87.5687 21.5585 87.4796 21.6897C87.3905 21.821 87.3307 21.9698 87.3041 22.1261L86.9409 22.0721L87.4602 19.9066H93.5155L93.4915 20.2061C92.3747 21.6553 91.41 23.215 90.6124 24.8607C89.9815 26.1004 89.5547 27.4334 89.3486 28.8085Z" fill="#111827"/>
</g>
<defs>
<clipPath id="clip0_25:8">
<rect width="160" height="29" fill="white"/>
</clipPath>
</defs>
</svg>
